<svg width="40" height="40" viewBox="0 0 40 40" fill="none" xmlns="http://www.w3.org/2000/svg">
<path d="M31.6667 18.3334H15L20.4833 12.8501C20.6395 12.6952 20.7635 12.5108 20.8482 12.3077C20.9328 12.1046 20.9763 11.8868 20.9763 11.6668C20.9763 11.4467 20.9328 11.2289 20.8482 11.0258C20.7635 10.8227 20.6395 10.6384 20.4833 10.4834C20.1711 10.173 19.7486 9.99878 19.3083 9.99878C18.868 9.99878 18.4456 10.173 18.1333 10.4834L10.9833 17.6501C10.3574 18.2724 10.0037 19.1175 10 20.0001C10.0081 20.8769 10.3614 21.7153 10.9833 22.3334L18.1333 29.5001C18.2887 29.6544 18.473 29.7766 18.6756 29.8597C18.8782 29.9428 19.0952 29.9851 19.3142 29.9844C19.5332 29.9836 19.7499 29.9397 19.9519 29.8552C20.154 29.7707 20.3374 29.6472 20.4917 29.4918C20.646 29.3364 20.7682 29.1521 20.8512 28.9495C20.9343 28.7469 20.9767 28.5299 20.9759 28.3109C20.9752 28.0919 20.9313 27.8752 20.8467 27.6732C20.7622 27.4711 20.6387 27.2877 20.4833 27.1334L15 21.6668H31.6667C32.1087 21.6668 32.5326 21.4912 32.8452 21.1786C33.1577 20.8661 33.3333 20.4421 33.3333 20.0001C33.3333 19.5581 33.1577 19.1342 32.8452 18.8216C32.5326 18.509 32.1087 18.3334 31.6667 18.3334Z" fill="black"/>
</svg>
