<svg width="38" height="38" viewBox="0 0 38 38" fill="none" xmlns="http://www.w3.org/2000/svg">
<path d="M27.0863 28H26.5592C26.2217 27.8857 25.979 27.6456 25.7341 27.3984C23.5424 25.2011 21.3484 23.0061 19.152 20.8135C19.1043 20.7653 19.0539 20.7194 18.9876 20.6543C18.9328 20.7205 18.8879 20.7768 18.8392 20.826C16.6365 23.0296 14.4345 25.2332 12.233 27.4367C12.0001 27.6697 11.764 27.8895 11.4451 27.9978H10.9174C10.7717 27.9267 10.6112 27.8742 10.4791 27.7791C9.87641 27.3416 9.83751 26.5273 10.3898 25.9744C12.6585 23.7063 14.9282 21.4384 17.1987 19.1706C17.2644 19.1142 17.3336 19.062 17.4058 19.0142C17.3375 18.9704 17.272 18.9224 17.2097 18.8704C14.9523 16.6147 12.6954 14.3579 10.4391 12.1C10.3754 12.0395 10.3152 11.9754 10.2589 11.9081C10.1321 11.7497 10.049 11.5612 10.0177 11.3609C9.98631 11.1607 10.0078 10.9558 10.0801 10.7665C10.1524 10.5771 10.2729 10.4098 10.4297 10.2812C10.5865 10.1525 10.7743 10.0669 10.9744 10.0328C11.0144 10.0257 11.0522 10.0109 11.0911 10H11.2319C11.6599 10.0547 11.9557 10.3134 12.2472 10.6059C14.4462 12.815 16.6493 15.0193 18.8567 17.2188C18.9011 17.2637 18.9482 17.3058 19.0353 17.3883C19.0712 17.3246 19.1128 17.2642 19.1597 17.2079C21.359 15.008 23.5576 12.8073 25.7554 10.6059C26.0464 10.3139 26.3417 10.0514 26.7702 10H26.9104C27.123 10.087 27.3488 10.1493 27.5444 10.2669C27.8052 10.4238 27.9115 10.7044 28.0002 10.9844V11.371C27.9142 11.727 27.6852 11.9846 27.4331 12.2362C25.2185 14.4441 23.0062 16.6541 20.7963 18.866C20.7341 18.9146 20.6669 18.9564 20.5958 18.9907C20.7053 19.082 20.7557 19.1203 20.8012 19.1657C23.017 21.3806 25.2329 23.5951 27.449 25.8092C27.6983 26.0575 27.9191 26.3134 28.0008 26.664V27.0512C27.8666 27.5319 27.5701 27.8562 27.0863 28Z" fill="#000231"/>
</svg>
