<svg width="18" height="19" viewBox="0 0 18 19" fill="none" xmlns="http://www.w3.org/2000/svg">
<g clip-path="url(#clip0_2_149)">
<path d="M17.4533 7.72705C16.29 5.83255 13.644 2.65405 9.00004 2.65405C4.35604 2.65405 1.71004 5.83255 0.546788 7.72705C0.187184 8.30868 -0.0032959 8.97899 -0.0032959 9.6628C-0.0032959 10.3466 0.187184 11.0169 0.546788 11.5986C1.71004 13.4931 4.35604 16.6716 9.00004 16.6716C13.644 16.6716 16.29 13.4931 17.4533 11.5986C17.8129 11.0169 18.0034 10.3466 18.0034 9.6628C18.0034 8.97899 17.8129 8.30868 17.4533 7.72705ZM16.1745 10.8133C15.1755 12.4378 12.9143 15.1716 9.00004 15.1716C5.08579 15.1716 2.82454 12.4378 1.82554 10.8133C1.61189 10.4676 1.49873 10.0692 1.49873 9.6628C1.49873 9.2564 1.61189 8.85802 1.82554 8.5123C2.82454 6.8878 5.08579 4.15405 9.00004 4.15405C12.9143 4.15405 15.1755 6.8848 16.1745 8.5123C16.3882 8.85802 16.5014 9.2564 16.5014 9.6628C16.5014 10.0692 16.3882 10.4676 16.1745 10.8133Z" fill="#5C5C5C"/>
<path d="M9 5.91284C8.25832 5.91284 7.5333 6.13278 6.91661 6.54483C6.29993 6.95689 5.81928 7.54256 5.53545 8.22778C5.25162 8.913 5.17736 9.667 5.32206 10.3944C5.46675 11.1219 5.8239 11.79 6.34835 12.3145C6.8728 12.8389 7.54098 13.1961 8.26841 13.3408C8.99584 13.4855 9.74984 13.4112 10.4351 13.1274C11.1203 12.8436 11.706 12.3629 12.118 11.7462C12.5301 11.1295 12.75 10.4045 12.75 9.66284C12.7488 8.66865 12.3533 7.71551 11.6503 7.01251C10.9473 6.3095 9.9942 5.91403 9 5.91284ZM9 11.9128C8.55499 11.9128 8.11998 11.7809 7.74997 11.5336C7.37996 11.2864 7.09157 10.935 6.92127 10.5239C6.75098 10.1127 6.70642 9.66035 6.79323 9.22389C6.88005 8.78743 7.09434 8.38652 7.40901 8.07185C7.72368 7.75718 8.12459 7.54289 8.56105 7.45607C8.99751 7.36926 9.44991 7.41382 9.86104 7.58411C10.2722 7.75441 10.6236 8.0428 10.8708 8.41281C11.118 8.78282 11.25 9.21783 11.25 9.66284C11.25 10.2596 11.0129 10.8319 10.591 11.2538C10.169 11.6758 9.59674 11.9128 9 11.9128Z" fill="#5C5C5C"/>
</g>
<defs>
<clipPath id="clip0_2_149">
<rect width="18" height="18" fill="white" transform="translate(0 0.662842)"/>
</clipPath>
</defs>
</svg>
