<svg width="59" height="60" viewBox="0 0 59 60" fill="none" xmlns="http://www.w3.org/2000/svg">
<rect width="59" height="59.0125" rx="20" fill="#4490DF"/>
<g clip-path="url(#clip0_99_1214)">
<path d="M28.6086 22.3781C28.4336 21.6977 28.0373 21.0947 27.4821 20.6642C26.9269 20.2337 26.2443 20 25.5417 20C24.8391 20 24.1564 20.2337 23.6012 20.6642C23.046 21.0947 22.6497 21.6977 22.4748 22.3781H20V23.9615H22.4748C22.6497 24.6419 23.046 25.2449 23.6012 25.6754C24.1564 26.1059 24.8391 26.3396 25.5417 26.3396C26.2443 26.3396 26.9269 26.1059 27.4821 25.6754C28.0373 25.2449 28.4336 24.6419 28.6086 23.9615H39V22.3781H28.6086Z" fill="white"/>
<path d="M33.4583 26.3396C32.7562 26.3394 32.0738 26.5726 31.5187 27.0026C30.9635 27.4325 30.567 28.0347 30.3914 28.7146H20V30.2979H30.3914C30.5664 30.9784 30.9627 31.5813 31.5179 32.0119C32.0731 32.4424 32.7557 32.6761 33.4583 32.6761C34.1609 32.6761 34.8436 32.4424 35.3988 32.0119C35.954 31.5813 36.3503 30.9784 36.5253 30.2979H39V28.7146H36.5253C36.3497 28.0347 35.9532 27.4325 35.398 27.0026C34.8428 26.5726 34.1605 26.3394 33.4583 26.3396Z" fill="white"/>
<path d="M25.5417 32.676C24.8395 32.6758 24.1572 32.9091 23.602 33.339C23.0468 33.7689 22.6503 34.3711 22.4748 35.051H20V36.6344H22.4748C22.6497 37.3148 23.046 37.9178 23.6012 38.3483C24.1564 38.7788 24.8391 39.0125 25.5417 39.0125C26.2443 39.0125 26.9269 38.7788 27.4821 38.3483C28.0373 37.9178 28.4336 37.3148 28.6086 36.6344H39V35.051H28.6086C28.433 34.3711 28.0365 33.7689 27.4813 33.339C26.9262 32.9091 26.2438 32.6758 25.5417 32.676Z" fill="white"/>
</g>
<defs>
<clipPath id="clip0_99_1214">
<rect width="19" height="19.0125" fill="white" transform="translate(20 20)"/>
</clipPath>
</defs>
</svg>
