<svg width="19" height="23" viewBox="0 0 19 23" fill="none" xmlns="http://www.w3.org/2000/svg">
<path d="M16.279 8.59386V7.30233C16.279 5.61851 15.6101 4.00366 14.4194 2.81302C13.2288 1.62238 11.6139 0.953491 9.93012 0.953491C8.2463 0.953491 6.63145 1.62238 5.44081 2.81302C4.25017 4.00366 3.58128 5.61851 3.58128 7.30233V8.59386C2.77349 8.94641 2.08594 9.52671 1.60271 10.2638C1.11948 11.0009 0.861511 11.8628 0.860352 12.7442V18.1861C0.861792 19.3883 1.34004 20.541 2.19018 21.3911C3.04032 22.2413 4.19295 22.7195 5.39524 22.7209H14.465C15.6673 22.7195 16.8199 22.2413 17.6701 21.3911C18.5202 20.541 18.9984 19.3883 18.9999 18.1861V12.7442C18.9987 11.8628 18.7408 11.0009 18.2575 10.2638C17.7743 9.52671 17.0867 8.94641 16.279 8.59386ZM5.39524 7.30233C5.39524 6.0996 5.87302 4.94614 6.72347 4.09568C7.57393 3.24523 8.72739 2.76744 9.93012 2.76744C11.1328 2.76744 12.2863 3.24523 13.1368 4.09568C13.9872 4.94614 14.465 6.0996 14.465 7.30233V8.20931H5.39524V7.30233ZM17.1859 18.1861C17.1859 18.9077 16.8993 19.5998 16.389 20.11C15.8787 20.6203 15.1866 20.907 14.465 20.907H5.39524C4.6736 20.907 3.98152 20.6203 3.47125 20.11C2.96097 19.5998 2.6743 18.9077 2.6743 18.1861V12.7442C2.6743 12.0226 2.96097 11.3305 3.47125 10.8202C3.98152 10.3099 4.6736 10.0233 5.39524 10.0233H14.465C15.1866 10.0233 15.8787 10.3099 16.389 10.8202C16.8993 11.3305 17.1859 12.0226 17.1859 12.7442V18.1861Z" fill="#254C93"/>
</svg>
