<svg width="22" height="23" viewBox="0 0 22 23" fill="none" xmlns="http://www.w3.org/2000/svg">
<g clip-path="url(#clip0_3_5556)">
<path d="M10.4549 14.5581C10.2143 14.5581 9.98361 14.6537 9.81352 14.8238C9.64343 14.9939 9.54788 15.2246 9.54788 15.4651V18.1861C9.54788 18.9077 9.26121 19.5998 8.75093 20.11C8.24066 20.6203 7.54858 20.907 6.82694 20.907H4.58127C3.85963 20.907 3.16756 20.6203 2.65728 20.11C2.14701 19.5998 1.86034 18.9077 1.86034 18.1861V5.48838C1.86034 4.76674 2.14701 4.07466 2.65728 3.56439C3.16756 3.05411 3.85963 2.76744 4.58127 2.76744H6.82694C7.54858 2.76744 8.24066 3.05411 8.75093 3.56439C9.26121 4.07466 9.54788 4.76674 9.54788 5.48838V8.20931C9.54788 8.44985 9.64343 8.68054 9.81352 8.85063C9.98361 9.02073 10.2143 9.11628 10.4549 9.11628C10.6954 9.11628 10.9261 9.02073 11.0962 8.85063C11.2663 8.68054 11.3618 8.44985 11.3618 8.20931V5.48838C11.3604 4.28609 10.8821 3.13346 10.032 2.28332C9.18186 1.43317 8.02923 0.954931 6.82694 0.953491H4.58127C3.37899 0.954931 2.22636 1.43317 1.37621 2.28332C0.52607 3.13346 0.0478269 4.28609 0.0463867 5.48838L0.0463867 18.1861C0.0478269 19.3883 0.52607 20.541 1.37621 21.3911C2.22636 22.2413 3.37899 22.7195 4.58127 22.7209H6.82694C8.02923 22.7195 9.18186 22.2413 10.032 21.3911C10.8821 20.541 11.3604 19.3883 11.3618 18.1861V15.4651C11.3618 15.2246 11.2663 14.9939 11.0962 14.8238C10.9261 14.6537 10.6954 14.5581 10.4549 14.5581Z" fill="#254C93"/>
<path d="M20.786 9.91407L16.6266 5.75467C16.5429 5.66805 16.4429 5.59895 16.3322 5.55142C16.2216 5.50388 16.1025 5.47886 15.9821 5.47782C15.8617 5.47677 15.7423 5.49972 15.6308 5.54532C15.5193 5.59093 15.4181 5.65827 15.3329 5.74343C15.2477 5.82859 15.1804 5.92985 15.1348 6.04132C15.0892 6.15278 15.0662 6.27221 15.0673 6.39264C15.0683 6.51307 15.0934 6.63208 15.1409 6.74274C15.1884 6.85339 15.2575 6.95347 15.3441 7.03714L19.2097 10.9036L5.48803 10.9308C5.24749 10.9308 5.01679 11.0263 4.8467 11.1964C4.67661 11.3665 4.58105 11.5972 4.58105 11.8378C4.58105 12.0783 4.67661 12.309 4.8467 12.4791C5.01679 12.6492 5.24749 12.7447 5.48803 12.7447L19.2632 12.7166L15.3423 16.6384C15.2557 16.7221 15.1866 16.8221 15.1391 16.9328C15.0915 17.0434 15.0665 17.1625 15.0655 17.2829C15.0644 17.4033 15.0874 17.5227 15.133 17.6342C15.1786 17.7457 15.2459 17.8469 15.3311 17.9321C15.4163 18.0173 15.5175 18.0846 15.629 18.1302C15.7404 18.1758 15.8599 18.1988 15.9803 18.1977C16.1007 18.1967 16.2197 18.1716 16.3304 18.1241C16.4411 18.0766 16.5411 18.0075 16.6248 17.9209L20.7842 13.7615C21.2945 13.2515 21.5814 12.5596 21.5818 11.8381C21.5821 11.1166 21.2959 10.4246 20.786 9.91407Z" fill="#254C93"/>
</g>
<defs>
<clipPath id="clip0_3_5556">
<rect width="21.7674" height="21.7674" fill="white" transform="translate(0.0463867 0.953491)"/>
</clipPath>
</defs>
</svg>
