<svg width="26" height="26" viewBox="0 0 26 26" fill="none" xmlns="http://www.w3.org/2000/svg">
<path d="M16.8069 10.5936L11.95 5.73678C11.7517 5.5397 11.4835 5.42908 11.204 5.42908C10.9245 5.42908 10.6563 5.5397 10.458 5.73678C10.3588 5.83514 10.2801 5.95218 10.2264 6.08112C10.1727 6.21006 10.145 6.34837 10.145 6.48806C10.145 6.62774 10.1727 6.76605 10.2264 6.89499C10.2801 7.02394 10.3588 7.14097 10.458 7.23933L15.3255 12.0856C15.4246 12.184 15.5034 12.301 15.5571 12.43C15.6108 12.5589 15.6385 12.6972 15.6385 12.8369C15.6385 12.9766 15.6108 13.1149 15.5571 13.2438C15.5034 13.3728 15.4246 13.4898 15.3255 13.5882L10.458 18.4345C10.2588 18.6323 10.1463 18.9012 10.1453 19.182C10.1443 19.4628 10.2549 19.7325 10.4527 19.9317C10.6506 20.131 10.9195 20.2435 11.2003 20.2445C11.4811 20.2455 11.7507 20.1349 11.95 19.937L16.8069 15.0801C17.4013 14.4849 17.7352 13.6781 17.7352 12.8369C17.7352 11.9957 17.4013 11.1888 16.8069 10.5936Z" fill="#000231"/>
</svg>
