<svg width="41" height="41" viewBox="0 0 41 41" fill="none" xmlns="http://www.w3.org/2000/svg">
<circle cx="20.5" cy="20.5" r="20.5" fill="#4490DF"/>
<path fill-rule="evenodd" clip-rule="evenodd" d="M18.9142 12.9142L27.9142 12.9142C28.4665 12.9142 28.9142 13.3619 28.9142 13.9142L28.9142 22.9142C28.9142 23.4665 28.4665 23.9142 27.9142 23.9142C27.3619 23.9142 26.9142 23.4665 26.9142 22.9142L26.9142 16.3284L14.6213 28.6213C14.2308 29.0118 13.5976 29.0118 13.2071 28.6213C12.8166 28.2308 12.8166 27.5976 13.2071 27.2071L25.5 14.9142L18.9142 14.9142C18.3619 14.9142 17.9142 14.4665 17.9142 13.9142C17.9142 13.3619 18.3619 12.9142 18.9142 12.9142Z" fill="white"/>
</svg>
