<svg width="22" height="23" viewBox="0 0 22 23" fill="none" xmlns="http://www.w3.org/2000/svg">
<g clip-path="url(#clip0_3_5548)">
<path d="M7.75582 9.56969C7.75582 10.0694 7.87191 10.5429 8.07871 10.9637C7.63429 11.5333 7.35766 12.2398 7.32047 13.0099C6.46701 12.1138 5.94187 10.902 5.94187 9.5706C5.94187 6.4769 8.77345 4.03169 11.9814 4.69015C13.8698 5.07834 15.3998 6.59934 15.8025 8.48494C15.9241 9.05453 15.9467 9.61232 15.8851 10.1456C15.8325 10.5973 15.4361 10.9311 14.9808 10.9311H14.94C14.4031 10.9311 14.0258 10.4531 14.0847 9.91978C14.1246 9.56153 14.1038 9.18513 14.0121 8.80148C13.7419 7.66504 12.8149 6.74446 11.6767 6.48234C9.60333 6.00618 7.75491 7.57706 7.75491 9.5706L7.75582 9.56969ZM4.22768 8.39515C4.47619 6.95034 5.18273 5.63341 6.27836 4.6058C7.66512 3.30611 9.48089 2.66397 11.3846 2.78187C14.9699 3.01406 17.7734 6.15492 17.7317 9.91525C17.7144 11.4898 16.3957 12.7432 14.8221 12.7432H12.6399C12.4186 11.9913 11.7311 11.4381 10.9076 11.4381C9.90536 11.4381 9.09361 12.2498 9.09361 13.252C9.09361 14.2542 9.90536 15.066 10.9076 15.066C11.3955 15.066 11.8372 14.871 12.1628 14.5572H14.8221C17.3788 14.5572 19.5093 12.521 19.5456 9.96513C19.6127 5.2298 16.0556 1.26632 11.5016 0.972456C9.08545 0.815549 6.79352 1.63636 5.03852 3.28343C3.67896 4.55773 2.7747 6.24471 2.4491 8.05957C2.35024 8.61101 2.7865 9.11711 3.3461 9.11711C3.77419 9.11711 4.15603 8.81871 4.22768 8.39606V8.39515ZM10.9302 16.372C7.57896 16.372 4.67936 18.4508 3.71524 21.5436C3.56559 22.0216 3.83315 22.5304 4.31112 22.68C4.78819 22.8242 5.29701 22.5612 5.44666 22.0842C6.16226 19.7895 8.4161 18.186 10.9293 18.186C13.4426 18.186 15.6973 19.7895 16.412 22.0842C16.5335 22.4723 16.8909 22.7209 17.2782 22.7209C17.368 22.7209 17.4578 22.7072 17.5485 22.68C18.0264 22.5304 18.2931 22.0216 18.1443 21.5436C17.1802 18.4508 14.2806 16.372 10.9293 16.372H10.9302Z" fill="#254C93"/>
</g>
<defs>
<clipPath id="clip0_3_5548">
<rect width="21.7674" height="21.7674" fill="white" transform="translate(0.0463867 0.953491)"/>
</clipPath>
</defs>
</svg>
